# xmcd
#
# Track frame offsets: 
#        150
#        12905
#        24843
#        34615
#        47019
#        61732
#        70637
#        83982
#        93201
#        104678
#        117249
#        128884
#        141794
#        155410
#        169022
#        178697
#        192640
#        207539
#
# Disc length: 2938 seconds
#
# Revision: 0
# Processed by: cddbd v1.5.2PL0 Copyright (c) Steve Scherf et al.
# Submitted via: ExactAudioCopy v1.1
#
DISCID=f10b7812
DTITLE=Helen Hobson - Stand by your man
DYEAR=1999
DGENRE=Musical/Country
TTITLE0=Stand by your man
TTITLE1=Help me make it through the night
TTITLE2=Singing my song
TTITLE3=Crying in the rain
TTITLE4=Easy come, easy go
TTITLE5=You're goog girl's gonna go bad
TTITLE6=Apartment number nine
TTITLE7=The race is on
TTITLE8=We're gonna hold on
TTITLE9=There goes my everything
TTITLE10=I don't wanna play house
TTITLE11=D.I.V.O.R.C.E
TTITLE12=Woman to woman
TTITLE13=Another lonely song
TTITLE14=Silver threads and golden needles
TTITLE15=Good year for the roses
TTITLE16=How great thou art
TTITLE17=Heaven's just a sin away
EXTD=
EXTT0=
EXTT1=
EXTT2=
EXTT3=
EXTT4=
EXTT5=
EXTT6=
EXTT7=
EXTT8=
EXTT9=
EXTT10=
EXTT11=
EXTT12=
EXTT13=
EXTT14=
EXTT15=
EXTT16=
EXTT17=
PLAYORDER=
